<?xml version="1.0" standalone="no"?>
<!DOCTYPE svg PUBLIC "-//W3C//DTD SVG 20010904//EN"
 "http://www.w3.org/TR/2001/REC-SVG-20010904/DTD/svg10.dtd">
<svg version="1.0" xmlns="http://www.w3.org/2000/svg"
 width="860.000000pt" height="648.000000pt" viewBox="0 0 860.000000 648.000000"
 preserveAspectRatio="xMidYMid meet">

<g transform="translate(0.000000,648.000000) scale(0.100000,-0.100000)"
fill="#000000" stroke="none">
<path d="M1405 6066 c-43 -18 -93 -79 -101 -122 -12 -66 27 -148 86 -179 15
-8 218 -46 451 -85 233 -39 425 -72 426 -74 6 -5 1287 -3253 1290 -3272 4 -17
-35 -51 -212 -188 -226 -176 -303 -245 -352 -318 -72 -107 -110 -244 -99 -357
14 -133 138 -300 273 -367 l63 -30 -56 -23 c-67 -28 -141 -99 -174 -166 -21
-42 -25 -64 -25 -145 0 -82 4 -102 25 -144 138 -272 523 -252 631 32 52 139
-3 305 -131 395 -24 17 -2 18 540 12 311 -3 965 -5 1454 -5 l889 0 -48 -47
c-190 -188 -109 -493 151 -569 113 -32 241 3 329 91 136 135 130 360 -14 486
l-44 39 152 0 c167 0 189 6 235 60 54 64 53 146 -1 211 -54 64 77 59 -1906 65
-997 3 -1835 7 -1864 10 -66 7 -113 38 -132 87 -19 51 -1 132 43 190 17 23
172 152 347 288 l316 247 1489 116 c819 65 1499 120 1511 123 35 8 101 70 112
106 6 17 63 463 127 990 116 953 117 958 99 1002 -27 72 -68 97 -178 107 -51
4 -965 29 -2032 53 -1067 25 -1977 48 -2021 51 l-81 6 -208 526 c-114 290
-216 543 -226 564 -18 35 -55 68 -93 82 -27 10 -958 166 -987 166 -13 -1 -38
-7 -54 -14z m2213 -1602 l32 -5 0 -295 0 -295 -156 3 -156 3 -119 300 c-65
165 -119 301 -119 302 0 3 488 -8 518 -13z m630 -14 l102 0 0 -290 0 -290
-290 0 -290 0 0 297 0 296 188 -6 c103 -4 233 -7 290 -7z m650 -17 l142 -6 0
-279 0 -278 -285 0 -285 0 0 285 0 285 143 0 c78 0 206 -3 285 -7z m750 -19
l92 -6 0 -269 0 -269 -290 0 -290 0 0 279 0 279 198 -4 c108 -3 239 -7 290
-10z m640 -14 l142 0 0 -265 0 -265 -285 0 -285 0 0 272 0 271 143 -6 c78 -4
206 -7 285 -7z m748 -23 c1 -1 -12 -116 -28 -254 l-31 -253 -214 0 -213 0 0
262 0 261 242 -7 c133 -3 243 -7 244 -9z m-3386 -892 l0 -265 -27 0 c-27 0
-31 8 -125 248 -53 136 -100 255 -104 265 -6 16 4 17 125 17 l131 0 0 -265z
m700 0 l0 -265 -290 0 -290 0 0 265 0 265 290 0 290 0 0 -265z m690 0 l0 -265
-285 0 -285 0 0 265 0 265 285 0 285 0 0 -265z m700 0 l0 -265 -290 0 -290 0
0 265 0 265 290 0 290 0 0 -265z m690 0 l0 -265 -285 0 -285 0 0 265 0 265
285 0 285 0 0 -265z m530 258 c0 -5 -14 -118 -30 -253 -16 -135 -30 -251 -30
-257 0 -10 -42 -13 -175 -13 l-175 0 0 265 0 265 205 0 c113 0 205 -3 205 -7z
m-2610 -918 l0 -275 -22 -4 c-13 -3 -111 -12 -218 -20 -107 -9 -203 -17 -213
-18 -15 -3 -29 23 -73 135 l-54 139 0 159 0 159 290 0 290 0 0 -275z m690 25
c0 -193 -3 -250 -12 -250 -7 0 -121 -9 -253 -20 -132 -11 -255 -20 -272 -20
l-33 0 0 270 0 270 285 0 285 0 0 -250z m698 28 l-3 -223 -215 -17 c-118 -9
-248 -19 -287 -23 l-73 -6 0 246 0 245 290 0 290 0 -2 -222z m692 27 c0 -107
-3 -195 -7 -195 -5 0 -116 -9 -248 -20 -132 -11 -257 -20 -277 -20 l-38 0 0
215 0 215 285 0 285 0 0 -195z m450 183 c0 -7 -9 -85 -20 -172 -11 -88 -20
-163 -20 -167 0 -3 -37 -9 -82 -13 -46 -3 -111 -9 -145 -12 l-63 -6 0 191 0
191 165 0 c125 0 165 -3 165 -12z m-3456 -2185 c88 -61 111 -183 52 -273 -39
-59 -118 -95 -190 -86 -198 23 -242 292 -61 378 58 27 144 19 199 -19z m3236
15 c70 -36 103 -86 108 -162 3 -49 0 -71 -17 -103 -52 -103 -164 -140 -268
-88 -124 62 -150 218 -53 315 63 63 152 77 230 38z"/>
<path d="M3241 819 c-69 -64 -40 -171 51 -185 72 -12 138 57 123 127 -15 70
-123 106 -174 58z"/>
<path d="M6507 820 c-61 -48 -53 -143 16 -176 118 -56 215 96 113 178 -29 24
-97 23 -129 -2z"/>
</g>
</svg>
